<?xml version="1.0" standalone="no"?>
<!DOCTYPE svg PUBLIC "-//W3C//DTD SVG 20010904//EN"
 "http://www.w3.org/TR/2001/REC-SVG-20010904/DTD/svg10.dtd">
<svg version="1.0" xmlns="http://www.w3.org/2000/svg"
 width="704.000000pt" height="704.000000pt" viewBox="0 0 704.000000 704.000000"
 preserveAspectRatio="xMidYMid meet">
<metadata>
Created by potrace 1.14, written by Peter Selinger 2001-2017
</metadata>
<g transform="translate(0.000000,704.000000) scale(0.100000,-0.100000)"
fill="#000000" stroke="none">
<path d="M3307 7033 c-2 -1 -33 -5 -69 -8 -36 -2 -85 -7 -109 -10 -24 -3 -57
-7 -74 -10 -69 -9 -246 -42 -325 -60 -98 -23 -322 -92 -375 -116 -11 -4 -54
-22 -97 -38 -100 -39 -325 -147 -333 -161 -3 -5 -15 -10 -26 -10 -10 0 -19 -4
-19 -10 0 -5 -5 -10 -10 -10 -6 0 -47 -22 -91 -50 -44 -27 -83 -50 -85 -50
-10 0 -267 -191 -354 -264 -101 -85 -345 -326 -420 -415 -25 -30 -50 -59 -55
-65 -20 -20 -161 -210 -202 -271 -119 -177 -269 -461 -342 -645 -35 -88 -110
-303 -116 -331 -2 -9 -12 -47 -23 -85 -36 -123 -69 -276 -77 -354 -2 -19 -4
-35 -5 -35 -4 0 -17 -92 -27 -190 -15 -142 -7 -665 11 -761 2 -11 7 -47 10
-80 4 -32 9 -68 11 -79 2 -11 7 -36 9 -55 10 -74 46 -239 70 -330 15 -52 28
-102 30 -110 23 -82 103 -297 147 -395 13 -27 24 -52 24 -55 0 -3 7 -16 15
-30 7 -14 32 -61 55 -105 156 -300 347 -556 619 -828 162 -162 419 -372 545
-445 25 -14 47 -30 49 -34 2 -4 10 -8 17 -8 7 0 15 -3 17 -7 4 -10 68 -47 123
-73 107 -50 190 -20 244 88 26 51 27 138 3 186 -16 34 -71 86 -89 86 -20 0
-279 177 -388 264 -190 153 -331 296 -486 491 -44 55 -89 111 -101 125 -11 13
-25 35 -31 47 -6 13 -14 23 -19 23 -4 0 -8 4 -8 9 0 5 -27 52 -60 104 -33 53
-60 100 -60 106 0 5 -3 11 -7 13 -8 3 -76 137 -113 223 -33 74 -137 353 -145
385 -2 8 -15 53 -28 100 -32 113 -48 180 -52 210 -1 14 -10 77 -19 140 -20
145 -26 241 -25 405 1 174 12 382 24 446 2 9 6 40 10 70 5 43 47 260 59 304 2
6 6 24 10 40 13 51 66 229 75 250 5 11 17 43 27 70 9 28 26 70 37 95 11 25 21
50 22 55 4 19 115 236 157 309 72 124 227 353 273 402 5 6 28 33 50 60 90 109
200 222 316 324 123 108 138 120 149 120 6 0 10 4 10 9 0 5 21 24 48 42 143
98 264 177 308 199 27 14 51 28 54 31 9 11 214 107 315 147 149 59 328 114
447 136 13 2 50 9 83 15 33 6 71 13 85 16 14 3 45 8 70 11 25 3 59 8 75 11
159 28 506 31 765 7 30 -3 63 -6 73 -7 9 -1 17 -4 17 -8 0 -7 32 -5 81 6 80
18 133 94 132 190 0 104 -55 174 -148 190 -47 9 -165 24 -230 31 -72 7 -522
13 -528 7z"/>
<path d="M4665 6710 c-24 -12 -54 -41 -75 -71 -53 -76 -99 -128 -280 -309
-173 -173 -201 -199 -315 -295 -38 -32 -75 -64 -82 -69 -16 -15 -27 -23 -103
-81 -35 -28 -69 -54 -75 -58 -59 -48 -233 -167 -242 -167 -7 0 -13 -4 -13 -8
0 -4 -15 -16 -32 -27 -18 -10 -57 -34 -85 -52 -29 -18 -56 -33 -59 -32 -4 0
-10 -3 -13 -8 -16 -24 -607 -333 -636 -333 -4 0 -32 -12 -63 -26 -126 -58
-502 -198 -502 -187 0 3 -6 1 -12 -4 -7 -5 -40 -18 -73 -27 -33 -10 -71 -22
-85 -27 -14 -5 -34 -11 -45 -13 -11 -2 -40 -10 -65 -17 -25 -7 -47 -13 -50
-14 -3 -1 -25 -7 -50 -14 -25 -7 -54 -15 -65 -17 -11 -2 -70 -15 -130 -28 -61
-14 -126 -28 -145 -31 -84 -13 -128 -28 -151 -49 -28 -27 -61 -66 -55 -66 2 0
-16 -57 -41 -127 -24 -71 -55 -159 -68 -198 -13 -38 -56 -162 -96 -275 -77
-218 -88 -282 -57 -314 26 -25 74 -23 103 4 14 13 25 28 25 33 0 11 70 160 79
167 3 3 7 11 9 18 1 7 38 84 81 170 64 126 81 153 87 137 5 -11 65 -176 135
-367 99 -275 122 -348 110 -349 -9 0 -27 -3 -41 -6 -64 -14 -385 -6 -515 12
-142 20 -199 9 -228 -46 -42 -78 6 -229 105 -331 31 -32 58 -58 61 -58 3 0 22
-11 42 -24 44 -30 152 -70 224 -83 51 -10 203 -9 246 1 53 11 81 19 90 25 6 3
16 6 23 7 11 2 37 15 117 58 33 18 115 98 144 142 62 91 75 187 38 289 -25 69
-175 442 -202 500 -7 17 -32 77 -55 135 -23 58 -47 116 -53 130 -6 14 -11 27
-12 30 -1 3 -7 18 -13 33 -16 38 -15 47 6 48 33 1 183 38 337 83 28 8 82 23
120 35 39 11 84 25 100 31 17 7 37 13 45 15 8 2 39 12 68 24 28 11 52 18 52
15 0 -4 6 -2 13 3 20 15 108 46 114 39 3 -3 6 -987 6 -2187 0 -1462 3 -2195
10 -2223 6 -22 17 -51 24 -63 18 -28 78 -56 123 -58 89 -4 134 43 150 153 5
40 15 93 21 120 6 26 12 58 14 72 6 38 42 174 72 270 14 47 27 90 29 95 1 6 8
24 15 40 6 17 13 35 15 40 10 41 127 290 184 390 57 102 165 270 212 330 46
59 139 174 178 219 41 48 264 272 332 333 64 57 238 188 323 243 39 24 72 47
75 50 9 9 84 51 113 63 15 6 27 15 27 19 0 4 4 8 10 8 5 0 65 27 132 59 101
49 337 142 398 157 8 2 67 17 130 33 63 17 131 33 150 36 19 3 58 10 85 15 46
8 100 16 180 26 174 21 582 21 691 0 12 -2 45 -7 75 -11 30 -3 61 -8 69 -10 8
-2 38 -7 65 -10 28 -3 104 -19 170 -36 66 -16 130 -32 142 -34 12 -3 58 -18
101 -33 44 -16 100 -29 126 -31 94 -4 119 58 152 379 3 36 8 79 10 95 7 65 17
255 17 340 0 79 -3 126 -18 315 -2 25 -6 59 -9 75 -3 17 -7 48 -10 70 -3 22
-7 50 -10 62 -2 11 -8 43 -12 70 -5 26 -9 50 -9 53 -9 33 -17 66 -30 125 -9
39 -20 81 -25 95 -4 14 -13 45 -20 70 -71 253 -198 574 -287 728 -24 41 -43
76 -43 78 0 7 -161 253 -182 279 -9 11 -63 79 -119 150 -105 131 -357 393
-459 475 -30 25 -57 47 -60 50 -53 54 -151 94 -200 80 -17 -5 -33 -9 -36 -8
-3 0 -22 -13 -43 -30 -98 -78 -106 -203 -21 -304 8 -10 20 -18 27 -18 7 0 13
-4 13 -8 0 -5 30 -33 67 -63 77 -62 310 -291 368 -362 22 -27 45 -54 50 -60
34 -38 111 -145 168 -232 65 -100 167 -272 167 -282 0 -3 10 -22 22 -42 13
-20 23 -38 23 -41 0 -3 17 -40 38 -83 20 -43 37 -83 37 -90 0 -7 4 -17 9 -22
5 -6 19 -39 31 -75 12 -36 26 -74 30 -85 13 -30 30 -89 28 -95 -1 -3 4 -14 10
-26 6 -11 13 -32 16 -45 2 -13 9 -43 15 -66 23 -90 30 -119 36 -158 4 -22 8
-44 9 -50 5 -18 16 -79 20 -115 13 -99 24 -197 25 -210 0 -8 2 -40 5 -70 7
-75 7 -364 0 -425 -3 -27 -5 -57 -5 -66 0 -15 -6 -16 -58 -3 -32 7 -69 15 -82
18 -13 2 -35 7 -49 10 -14 3 -41 8 -60 11 -19 2 -44 7 -56 9 -20 4 -89 13
-159 21 -16 2 -59 7 -95 11 -84 11 -497 11 -575 1 -33 -4 -80 -10 -105 -13
-25 -3 -56 -7 -70 -9 -14 -2 -47 -7 -75 -11 -56 -7 -78 -11 -115 -19 -31 -7
-67 -14 -101 -20 -145 -27 -433 -121 -614 -201 -22 -10 -42 -18 -45 -19 -16
-2 -255 -124 -309 -157 -34 -21 -65 -38 -67 -38 -7 0 -271 -178 -286 -193 -7
-7 -29 -24 -48 -38 -19 -15 -45 -35 -57 -45 -11 -11 -41 -35 -65 -54 -46 -37
-329 -318 -363 -360 -11 -14 -40 -50 -65 -80 -57 -69 -52 -62 -115 -150 -30
-41 -59 -80 -65 -87 -5 -7 -10 -14 -10 -17 0 -2 -21 -38 -47 -78 -73 -112 -79
-123 -140 -240 -8 -16 -16 -28 -18 -28 -2 0 -3 755 -2 1677 l2 1678 80 39
c279 136 408 201 470 236 39 22 84 47 100 55 44 22 69 39 77 50 4 6 8 6 8 1 0
-5 8 -3 18 6 9 8 60 41 112 73 52 33 97 63 98 67 2 4 8 8 12 8 9 0 140 88 150
100 3 4 25 20 50 37 25 17 99 74 165 127 65 53 123 96 129 96 7 0 7 -3 1 -8
-17 -12 -252 -731 -248 -756 6 -32 46 -76 74 -81 13 -3 38 1 56 7 35 13 66 62
118 188 15 36 51 119 80 185 29 66 99 226 155 355 56 129 110 254 121 277 10
23 19 44 19 47 0 3 15 37 34 76 19 39 35 73 35 76 -1 2 10 29 22 60 17 40 25
51 31 40 5 -8 47 -117 94 -243 73 -194 119 -318 154 -408 4 -11 17 -45 29 -75
12 -30 24 -62 26 -70 2 -8 9 -28 16 -45 7 -16 13 -32 13 -35 1 -3 11 -31 24
-62 12 -32 31 -82 41 -110 25 -69 81 -218 91 -243 31 -80 74 -195 81 -217 7
-24 5 -28 -14 -29 -12 -1 -33 -2 -47 -4 -14 -1 -65 -6 -115 -10 -49 -4 -106
-9 -125 -11 -47 -5 -434 -4 -490 1 -25 2 -76 6 -115 9 -97 8 -183 17 -230 23
-85 10 -202 8 -226 -5 -64 -35 -84 -133 -52 -262 17 -68 81 -210 95 -210 4 0
8 -4 8 -10 0 -5 8 -19 18 -31 36 -45 155 -159 166 -159 2 0 33 -17 67 -38 81
-49 169 -84 284 -113 74 -19 118 -23 250 -23 88 -1 176 2 195 6 75 15 96 19
135 30 22 5 41 10 42 9 3 0 80 32 133 57 115 53 255 171 321 272 88 133 125
290 100 423 -8 46 -76 251 -108 327 -3 8 -7 17 -7 20 -2 9 -57 164 -66 185 -7
17 -46 125 -82 230 -5 17 -14 39 -19 50 -8 21 -135 373 -174 485 -41 120 -157
445 -165 465 -18 46 -71 191 -75 205 -5 23 -44 124 -53 136 -13 20 -70 44
-119 49 -37 4 -57 1 -88 -15z m-460 -2336 c43 -4 134 -11 260 -19 96 -7 422
-7 520 0 78 5 144 11 240 20 40 4 65 3 65 -3 0 -14 -37 -93 -59 -127 -75 -111
-245 -212 -371 -219 -8 -1 -19 -4 -25 -7 -14 -9 -242 -3 -290 7 -22 4 -42 9
-45 9 -46 9 -77 19 -87 27 -7 6 -13 8 -13 5 0 -20 -175 80 -237 136 -39 36
-106 129 -117 165 -8 23 -7 23 56 17 34 -4 81 -9 103 -11z m-3100 -1010 c86
-9 358 -9 443 -2 75 7 79 -3 25 -57 -65 -65 -147 -94 -259 -91 -87 3 -136 13
-201 42 -49 21 -143 97 -143 115 0 5 15 7 33 4 17 -2 64 -8 102 -11z"/>
<path d="M6498 2404 c-2 -2 -13 -5 -24 -7 -72 -14 -110 -55 -152 -164 -52
-134 -184 -388 -232 -446 -6 -7 -39 -52 -74 -102 -35 -49 -78 -108 -97 -129
-237 -275 -348 -383 -550 -536 -127 -96 -283 -200 -299 -200 -5 0 -10 -4 -10
-8 0 -4 -15 -15 -32 -23 -41 -20 -101 -52 -108 -59 -30 -30 -444 -197 -534
-216 -10 -2 -44 -11 -75 -20 -31 -9 -65 -18 -76 -20 -11 -2 -31 -6 -45 -9 -44
-9 -137 -27 -215 -39 -16 -3 -48 -8 -70 -12 -22 -4 -51 -8 -65 -9 -14 -2 -25
-4 -25 -5 0 -1 -81 -4 -179 -7 -119 -4 -204 -1 -255 7 -96 16 -180 19 -187 8
-3 -4 -9 -6 -13 -4 -14 9 -81 -55 -103 -97 -53 -104 -12 -230 87 -272 51 -22
151 -30 360 -30 184 1 297 7 400 21 22 3 56 7 75 9 257 26 634 137 935 274
100 46 316 157 367 189 14 9 48 30 75 46 264 160 627 491 852 776 28 36 60 76
71 89 11 13 26 33 32 45 6 11 14 23 17 26 3 3 24 32 47 65 125 183 297 519
320 626 23 107 -41 203 -151 225 -11 2 -30 6 -42 8 -11 3 -23 3 -25 0z"/>
</g>
</svg>
