<?xml version="1.0" encoding="UTF-8"?>
<svg xmlns="http://www.w3.org/2000/svg" viewBox="0 0 43.38 44.12">
  <defs>
    <style>
      .cls-1 {
        fill: #04a583;
      }
    </style>
  </defs>
  <path class="cls-1" d="m41.36,12.74c-1.47-3.42-4.02-6.07-5.38-7.28l-.05-.06c-.11-.11-.87-.72-1.09-.88-.11-.11-.38-.22-.71-.22-.27,0-.65.11-.98.66-.38.66-.05,1.32.33,1.6.05,0,.71.61,1.03.88,2.01,1.76,3.42,3.75,4.62,6.18,1.3,2.76,1.63,5.13,1.79,6.62.16,1.87.11,2.76,0,3.8-1.47-.33-3.21-.66-5.38-.66-.82,0-1.63.06-2.45.17-2.28.28-4.4.77-7.39,2.26-.98.5-2.55,1.43-3.97,2.65-2.23,1.87-4.02,4.14-5.33,6.73V14.06c.22-.11.49-.22.71-.33,3.15-1.43,5.98-3.14,8.53-5.35l-1.52,4.52c-.11.33,0,.66.33.83.27.11.6,0,.76-.28,0,0,0-.06.05-.06l3.42-7.88.05-.06,3.64,9.7c-1.47.17-2.5.22-3.53.22-1.25,0-2.5-.11-4.51-.33h-.11c-.22,0-.43.06-.6.22-.16.17-.27.44-.27.66,0,2.59,2.55,4.58,5.76,4.58s5.76-1.98,5.76-4.58c0-.22-.11-.88-.22-1.1l-.27-.72-4.08-11.41c0-.06-.05-.11-.05-.17l-.05-.11c-.05-.11-.16-.22-.27-.28-.16-.11-.38-.17-.65-.17-.33,0-.6.11-.76.33-.11.11-.27.33-.38.5v.06c-3.32,3.75-7.12,6.56-11.85,8.66-4.4,1.98-8.26,2.59-8.59,2.65-.33,0-.65.39-.76.61l-1.79,5.18c-.05.22-.05.33.05.44.05.11.11.17.22.22.11.06.33.06.43-.06t.05,0s.05,0,.05-.06c0,0,0-.06.05-.06v-.06c0-.06.05-.06.05-.11l1.58-3.2,1.68,4.63c-.65.06-1.09.11-1.52.11-.65,0-1.36-.06-2.72-.22h-.16c-.16,0-.33.06-.49.17-.16.17-.22.33-.22.55,0,1.54,1.58,2.81,3.53,2.81,1.79,0,3.32-1.05,3.53-2.48v-.44c-.05-.22-.11-.39-.11-.39l-2.23-5.46c1.09-.22,3.21-.77,5.49-1.65v27.13c0,.72.22,1.16.65,1.27.11.06.27.06.38.06.49,0,.82-.28.87-.77,0-.11.11-.77.16-.94.54-2.98,1.85-5.84,3.75-8.22,4.89-6.23,10.92-7.55,15.16-7.55,2.77,0,5.22.61,6.47,1.1.05,0,.22.06.38.06.11,0,.22,0,.33-.06.22-.17.27-.28.33-.44v-.06c.11-.44.22-1.21.22-1.38v-.06c.27-2.1.76-6.07-1.79-12.13ZM5.65,22.94c.92.11,1.58.17,2.23.17.6,0,.87,0,1.9-.11-.33.61-.87.99-1.9.99s-1.85-.44-2.23-1.05Zm23.43-3.97c-2.07,0-3.7-.99-4.19-2.37,3.15.33,4.78.39,7.88.06-.43,1.38-1.58,2.32-3.7,2.32Z"/>
  <path class="cls-1" d="m12.01,39.04c-.16-.06-1.25-.77-1.85-1.21-1.85-1.38-4.4-3.86-5.98-7.33-1.03-2.43-1.96-4.85-1.79-8.93.16-4.8,1.85-9.04,4.95-12.63,3.8-4.3,8.26-5.62,10-5.95,1.52-.33,2.99-.5,4.46-.5.76,0,1.52.06,2.23.11h.16c.11,0,.22.06.27.06.11,0,.16,0,.27.06h.16c.43,0,.92-.28,1.09-.88.16-.83-.22-1.32-.65-1.49-.22-.06-.38-.11-.92-.17-.87-.11-1.79-.17-2.72-.17-1.52,0-3.1.17-4.57.5-4.29.94-8.37,3.31-11.47,6.84C2.12,11.19,0,16.76,0,21.83s1.25,9.21,3.75,12.85c1.47,2.1,3.32,3.97,5.49,5.51.38.28,1.74,1.1,1.74,1.1.22.11.6.17.6.17.43,0,.76-.22.98-.66.16-.33.22-.66.11-.99-.11-.5-.49-.72-.65-.77Z"/>
  <path class="cls-1" d="m40.76,29.11c-.11,0-.22-.06-.33-.06-.54,0-.98.33-1.14.83,0,.06-.11.28-.38.94-.54,1.21-1.36,2.59-2.88,4.3-1.3,1.49-2.66,2.65-4.62,3.86-2.07,1.27-4.35,2.1-6.96,2.48-.92.17-1.63.22-2.55.22s-.76,0-1.36-.11l-.49-.06h-.16c-.6,0-1.03.55-1.14,1.05-.11.66.27,1.21.76,1.38.05,0,.22.06.76.11.82.11.33.06,1.52.06.92,0,1.68-.06,2.61-.17,2.77-.33,5.38-1.27,7.99-2.7,1.68-.94,3.15-2.1,4.62-3.58,2.28-2.32,3.48-4.41,4.29-6.18.33-.66.16-.33.33-.83.11-.33.11-.66-.05-.94-.16-.28-.43-.5-.82-.61Z"/>
</svg>